<svg xmlns="http://www.w3.org/2000/svg" xmlns:xlink="http://www.w3.org/1999/xlink" contentStyleType="text/css" data-diagram-type="CLASS" height="934px" preserveAspectRatio="none" style="width:588px;height:934px;background:#FFFFFF;" version="1.1" viewBox="0 0 588 934" width="588px" zoomAndPan="magnify"><defs/><g><!--cluster CourseworkApp--><g class="cluster" data-entity="CourseworkApp" data-source-line="2" data-uid="ent0004" id="cluster_CourseworkApp"><path d="M8.5,6 L133.7363,6 A3.75,3.75 0 0 1 136.2363,8.5 L143.2363,28.2969 L578.5,28.2969 A2.5,2.5 0 0 1 581,30.7969 L581,925.42 A2.5,2.5 0 0 1 578.5,927.92 L8.5,927.92 A2.5,2.5 0 0 1 6,925.42 L6,8.5 A2.5,2.5 0 0 1 8.5,6" fill="none" style="stroke:#000000;stroke-width:1.5;"/><line style="stroke:#000000;stroke-width:1.5;" x1="6" x2="143.2363" y1="28.2969" y2="28.2969"/><text fill="#000000" font-family="sans-serif" font-size="14" font-weight="bold" lengthAdjust="spacing" textLength="124.2363" x="10" y="20.9951">CourseworkApp</text></g><!--cluster Views--><g class="cluster" data-entity="Views" data-source-line="1" data-uid="ent0002" id="cluster_Views"><path d="M111.5,49 L158.8955,49 A3.75,3.75 0 0 1 161.3955,51.5 L168.3955,71.2969 L474.5,71.2969 A2.5,2.5 0 0 1 477,73.7969 L477,202.65 A2.5,2.5 0 0 1 474.5,205.15 L111.5,205.15 A2.5,2.5 0 0 1 109,202.65 L109,51.5 A2.5,2.5 0 0 1 111.5,49" fill="none" style="stroke:#000000;stroke-width:1.5;"/><line style="stroke:#000000;stroke-width:1.5;" x1="109" x2="168.3955" y1="71.2969" y2="71.2969"/><text fill="#000000" font-family="sans-serif" font-size="14" font-weight="bold" lengthAdjust="spacing" textLength="46.3955" x="113" y="63.9951">Views</text></g><!--cluster ViewModels--><g class="cluster" data-entity="ViewModels" data-source-line="9" data-uid="ent0005" id="cluster_ViewModels"><path d="M93.5,254.15 L188.7607,254.15 A3.75,3.75 0 0 1 191.2607,256.65 L198.2607,276.4469 L492.5,276.4469 A2.5,2.5 0 0 1 495,278.9469 L495,473 A2.5,2.5 0 0 1 492.5,475.5 L93.5,475.5 A2.5,2.5 0 0 1 91,473 L91,256.65 A2.5,2.5 0 0 1 93.5,254.15" fill="none" style="stroke:#000000;stroke-width:1.5;"/><line style="stroke:#000000;stroke-width:1.5;" x1="91" x2="198.2607" y1="276.4469" y2="276.4469"/><text fill="#000000" font-family="sans-serif" font-size="14" font-weight="bold" lengthAdjust="spacing" textLength="94.2607" x="95" y="269.1451">ViewModels</text></g><!--cluster Database--><g class="cluster" data-entity="Database" data-source-line="23" data-uid="ent0009" id="cluster_Database"><path d="M175.5,524.5 L251.0049,524.5 A3.75,3.75 0 0 1 253.5049,527 L260.5049,546.7969 L554.5,546.7969 A2.5,2.5 0 0 1 557,549.2969 L557,901.42 A2.5,2.5 0 0 1 554.5,903.92 L175.5,903.92 A2.5,2.5 0 0 1 173,901.42 L173,527 A2.5,2.5 0 0 1 175.5,524.5" fill="none" style="stroke:#000000;stroke-width:1.5;"/><line style="stroke:#000000;stroke-width:1.5;" x1="173" x2="260.5049" y1="546.7969" y2="546.7969"/><text fill="#000000" font-family="sans-serif" font-size="14" font-weight="bold" lengthAdjust="spacing" textLength="74.5049" x="177" y="539.4951">Database</text></g><!--cluster Models--><g class="cluster" data-entity="Models" data-source-line="21" data-uid="ent0007" id="cluster_Models"><path d="M226.5,740.06 L283.6982,740.06 A3.75,3.75 0 0 1 286.1982,742.56 L293.1982,762.3569 L449.5,762.3569 A2.5,2.5 0 0 1 452,764.8569 L452,877.42 A2.5,2.5 0 0 1 449.5,879.92 L226.5,879.92 A2.5,2.5 0 0 1 224,877.42 L224,742.56 A2.5,2.5 0 0 1 226.5,740.06" fill="none" style="stroke:#000000;stroke-width:1.5;"/><line style="stroke:#000000;stroke-width:1.5;" x1="224" x2="293.1982" y1="762.3569" y2="762.3569"/><text fill="#000000" font-family="sans-serif" font-size="14" font-weight="bold" lengthAdjust="spacing" textLength="56.1982" x="228" y="755.0551">Models</text></g><!--cluster Data--><g class="cluster" data-entity="Data" data-source-line="29" data-uid="ent0010" id="cluster_Data"><path d="M199.5,567.5 L237.708,567.5 A3.75,3.75 0 0 1 240.208,570 L247.208,589.7969 L530.5,589.7969 A2.5,2.5 0 0 1 533,592.2969 L533,688.56 A2.5,2.5 0 0 1 530.5,691.06 L199.5,691.06 A2.5,2.5 0 0 1 197,688.56 L197,570 A2.5,2.5 0 0 1 199.5,567.5" fill="none" style="stroke:#000000;stroke-width:1.5;"/><line style="stroke:#000000;stroke-width:1.5;" x1="197" x2="247.208" y1="589.7969" y2="589.7969"/><text fill="#000000" font-family="sans-serif" font-size="14" font-weight="bold" lengthAdjust="spacing" textLength="37.208" x="201" y="582.4951">Data</text></g><!--class MainPage--><g class="entity" data-entity="MainPage" data-source-line="2" data-uid="ent0003" id="entity_MainPage"><rect fill="#F1F1F1" height="105.1563" rx="2.5" ry="2.5" style="stroke:#181818;stroke-width:0.5;" width="336.2627" x="124.87" y="84"/><ellipse cx="254.7802" cy="104.1328" fill="#ADD1B2" rx="11" ry="11" style="stroke:#181818;stroke-width:1;"/><path d="M257.7489,109.7734 Q257.1708,110.0703 256.5302,110.2109 Q255.8895,110.3672 255.1864,110.3672 Q252.6864,110.3672 251.3583,108.7266 Q250.0458,107.0703 250.0458,103.9453 Q250.0458,100.8203 251.3583,99.1641 Q252.6864,97.5078 255.1864,97.5078 Q255.8895,97.5078 256.5302,97.6641 Q257.1864,97.8203 257.7489,98.1172 L257.7489,100.8359 Q257.1239,100.2578 256.5302,99.9922 Q255.9364,99.7109 255.3114,99.7109 Q253.9677,99.7109 253.2802,100.7891 Q252.5927,101.8516 252.5927,103.9453 Q252.5927,106.0391 253.2802,107.1172 Q253.9677,108.1797 255.3114,108.1797 Q255.9364,108.1797 256.5302,107.9141 Q257.1239,107.6328 257.7489,107.0547 L257.7489,109.7734 Z " fill="#000000"/><text fill="#000000" font-family="sans-serif" font-size="12" font-style="italic" lengthAdjust="spacing" textLength="43.4238" x="287.5394" y="100.1387">&#171;View&#187;</text><text fill="#000000" font-family="sans-serif" font-size="14" lengthAdjust="spacing" textLength="67.9424" x="275.2802" y="115.9639">MainPage</text><line style="stroke:#181818;stroke-width:0.5;" x1="125.87" x2="460.1327" y1="124.2656" y2="124.2656"/><rect fill="none" height="6" style="stroke:#C82930;stroke-width:1;" width="6" x="132.87" y="134.9141"/><text fill="#000000" font-family="sans-serif" font-size="14" lengthAdjust="spacing" textLength="238.3965" x="144.87" y="141.2607">_viewModel : MainPageViewModel</text><line style="stroke:#181818;stroke-width:0.5;" x1="125.87" x2="460.1327" y1="148.5625" y2="148.5625"/><ellipse cx="135.87" cy="162.2109" fill="#84BE84" rx="3" ry="3" style="stroke:#038048;stroke-width:1;"/><text fill="#000000" font-family="sans-serif" font-size="14" lengthAdjust="spacing" textLength="310.2627" x="144.87" y="165.5576">MainPage(viewModel : MainPageViewModel)</text><polygon fill="#FFFF44" points="135.87,173.5078,139.87,177.5078,135.87,181.5078,131.87,177.5078" style="stroke:#B38D22;stroke-width:1;"/><text fill="#000000" font-family="sans-serif" font-size="14" lengthAdjust="spacing" textLength="146.0088" x="144.87" y="181.8545">OnAppearing() : void</text></g><!--class MainPageViewModel--><g class="entity" data-entity="MainPageViewModel" data-source-line="10" data-uid="ent0006" id="entity_MainPageViewModel"><rect fill="#F1F1F1" height="170.3438" rx="2.5" ry="2.5" style="stroke:#181818;stroke-width:0.5;" width="371.6182" x="107.19" y="289.15"/><ellipse cx="216.9957" cy="309.2828" fill="#ADD1B2" rx="11" ry="11" style="stroke:#181818;stroke-width:1;"/><path d="M219.9644,314.9234 Q219.3863,315.2203 218.7457,315.3609 Q218.105,315.5172 217.4019,315.5172 Q214.9019,315.5172 213.5738,313.8766 Q212.2613,312.2203 212.2613,309.0953 Q212.2613,305.9703 213.5738,304.3141 Q214.9019,302.6578 217.4019,302.6578 Q218.105,302.6578 218.7457,302.8141 Q219.4019,302.9703 219.9644,303.2672 L219.9644,305.9859 Q219.3394,305.4078 218.7457,305.1422 Q218.1519,304.8609 217.5269,304.8609 Q216.1832,304.8609 215.4957,305.9391 Q214.8082,307.0016 214.8082,309.0953 Q214.8082,311.1891 215.4957,312.2672 Q216.1832,313.3297 217.5269,313.3297 Q218.1519,313.3297 218.7457,313.0641 Q219.3394,312.7828 219.9644,312.2047 L219.9644,314.9234 Z " fill="#000000"/><text fill="#000000" font-family="sans-serif" font-size="12" font-style="italic" lengthAdjust="spacing" textLength="79.4531" x="269.5225" y="305.2887">&#171;ViewModel&#187;</text><text fill="#000000" font-family="sans-serif" font-size="14" lengthAdjust="spacing" textLength="143.5068" x="237.4957" y="321.1139">MainPageViewModel</text><line style="stroke:#181818;stroke-width:0.5;" x1="108.19" x2="477.8082" y1="329.4156" y2="329.4156"/><rect fill="none" height="6" style="stroke:#C82930;stroke-width:1;" width="6" x="115.19" y="340.0641"/><text fill="#000000" font-family="sans-serif" font-size="14" lengthAdjust="spacing" textLength="198.1875" x="127.19" y="346.4107">_dbContext : TestDbContext</text><rect fill="none" height="6" style="stroke:#C82930;stroke-width:1;" width="6" x="115.19" y="356.3609"/><text fill="#000000" font-family="sans-serif" font-size="14" lengthAdjust="spacing" textLength="129.1855" x="127.19" y="362.7076">_isInitialized : bool</text><ellipse cx="118.19" cy="375.6578" fill="none" rx="3" ry="3" style="stroke:#038048;stroke-width:1;"/><text fill="#000000" font-family="sans-serif" font-size="14" lengthAdjust="spacing" textLength="245.4375" x="127.19" y="379.0045">Title : string &#171;ObservableProperty&#187;</text><ellipse cx="118.19" cy="391.9547" fill="none" rx="3" ry="3" style="stroke:#038048;stroke-width:1;"/><text fill="#000000" font-family="sans-serif" font-size="14" lengthAdjust="spacing" textLength="294.7383" x="127.19" y="395.3014">Description : string &#171;ObservableProperty&#187;</text><line style="stroke:#181818;stroke-width:0.5;" x1="108.19" x2="477.8082" y1="402.6031" y2="402.6031"/><ellipse cx="118.19" cy="416.2516" fill="#84BE84" rx="3" ry="3" style="stroke:#038048;stroke-width:1;"/><text fill="#000000" font-family="sans-serif" font-size="14" lengthAdjust="spacing" textLength="345.6182" x="127.19" y="419.5982">MainPageViewModel(dbContext : TestDbContext)</text><ellipse cx="118.19" cy="432.5484" fill="#84BE84" rx="3" ry="3" style="stroke:#038048;stroke-width:1;"/><text fill="#000000" font-family="sans-serif" font-size="14" lengthAdjust="spacing" textLength="157.3906" x="127.19" y="435.8951">InitializeAsync() : Task</text><rect fill="#F24D5C" height="6" style="stroke:#C82930;stroke-width:1;" width="6" x="115.19" y="445.8453"/><text fill="#000000" font-family="sans-serif" font-size="14" lengthAdjust="spacing" textLength="210.7041" x="127.19" y="452.192">LoadDataAsync(id : int) : Task</text></g><!--class MainPageModel--><g class="entity" data-entity="MainPageModel" data-source-line="23" data-uid="ent0008" id="entity_MainPageModel"><rect fill="#F1F1F1" height="88.8594" rx="2.5" ry="2.5" style="stroke:#181818;stroke-width:0.5;" width="195.5723" x="240.21" y="775.06"/><ellipse cx="279.3281" cy="795.1928" fill="#ADD1B2" rx="11" ry="11" style="stroke:#181818;stroke-width:1;"/><path d="M282.2968,800.8334 Q281.7187,801.1303 281.0781,801.2709 Q280.4374,801.4272 279.7343,801.4272 Q277.2343,801.4272 275.9062,799.7866 Q274.5937,798.1303 274.5937,795.0053 Q274.5937,791.8803 275.9062,790.2241 Q277.2343,788.5678 279.7343,788.5678 Q280.4374,788.5678 281.0781,788.7241 Q281.7343,788.8803 282.2968,789.1772 L282.2968,791.8959 Q281.6718,791.3178 281.0781,791.0522 Q280.4843,790.7709 279.8593,790.7709 Q278.5156,790.7709 277.8281,791.8491 Q277.1406,792.9116 277.1406,795.0053 Q277.1406,797.0991 277.8281,798.1772 Q278.5156,799.2397 279.8593,799.2397 Q280.4843,799.2397 281.0781,798.9741 Q281.6718,798.6928 282.2968,798.1147 L282.2968,800.8334 Z " fill="#000000"/><text fill="#000000" font-family="sans-serif" font-size="12" font-style="italic" lengthAdjust="spacing" textLength="50.7129" x="328.3195" y="791.1987">&#171;Model&#187;</text><text fill="#000000" font-family="sans-serif" font-size="14" lengthAdjust="spacing" textLength="109.9766" x="298.6876" y="807.0239">MainPageModel</text><line style="stroke:#181818;stroke-width:0.5;" x1="241.21" x2="434.7823" y1="815.3256" y2="815.3256"/><ellipse cx="251.21" cy="828.9741" fill="none" rx="3" ry="3" style="stroke:#038048;stroke-width:1;"/><text fill="#000000" font-family="sans-serif" font-size="14" lengthAdjust="spacing" textLength="84.0889" x="260.21" y="832.3207">Id : int &#171;PK&#187;</text><ellipse cx="251.21" cy="845.2709" fill="none" rx="3" ry="3" style="stroke:#038048;stroke-width:1;"/><text fill="#000000" font-family="sans-serif" font-size="14" lengthAdjust="spacing" textLength="169.5723" x="260.21" y="848.6176">Text : string &#171;Required&#187;</text><line style="stroke:#181818;stroke-width:0.5;" x1="241.21" x2="434.7823" y1="855.9194" y2="855.9194"/></g><!--class TestDbContext--><g class="entity" data-entity="TestDbContext" data-source-line="30" data-uid="ent0011" id="entity_TestDbContext"><rect fill="#F1F1F1" height="72.5625" rx="2.5" ry="2.5" style="stroke:#181818;stroke-width:0.5;" width="304.0381" x="212.98" y="602.5"/><ellipse cx="308.396" cy="622.6328" fill="#ADD1B2" rx="11" ry="11" style="stroke:#181818;stroke-width:1;"/><path d="M311.3648,628.2734 Q310.7866,628.5703 310.146,628.7109 Q309.5054,628.8672 308.8023,628.8672 Q306.3023,628.8672 304.9741,627.2266 Q303.6616,625.5703 303.6616,622.4453 Q303.6616,619.3203 304.9741,617.6641 Q306.3023,616.0078 308.8023,616.0078 Q309.5054,616.0078 310.146,616.1641 Q310.8023,616.3203 311.3648,616.6172 L311.3648,619.3359 Q310.7398,618.7578 310.146,618.4922 Q309.5523,618.2109 308.9273,618.2109 Q307.5835,618.2109 306.896,619.2891 Q306.2085,620.3516 306.2085,622.4453 Q306.2085,624.5391 306.896,625.6172 Q307.5835,626.6797 308.9273,626.6797 Q309.5523,626.6797 310.146,626.4141 Q310.7398,626.1328 311.3648,625.5547 L311.3648,628.2734 Z " fill="#000000"/><text fill="#000000" font-family="sans-serif" font-size="12" font-style="italic" lengthAdjust="spacing" textLength="78.7617" x="341.8682" y="618.6387">&#171;DbContext&#187;</text><text fill="#000000" font-family="sans-serif" font-size="14" lengthAdjust="spacing" textLength="104.7061" x="328.896" y="634.4639">TestDbContext</text><line style="stroke:#181818;stroke-width:0.5;" x1="213.98" x2="516.0181" y1="642.7656" y2="642.7656"/><ellipse cx="223.98" cy="656.4141" fill="none" rx="3" ry="3" style="stroke:#038048;stroke-width:1;"/><text fill="#000000" font-family="sans-serif" font-size="14" lengthAdjust="spacing" textLength="278.0381" x="232.98" y="659.7607">MainPageDB : DbSet&lt;MainPageModel&gt;</text><line style="stroke:#181818;stroke-width:0.5;" x1="213.98" x2="516.0181" y1="667.0625" y2="667.0625"/></g><!--link MainPage to MainPageViewModel--><g class="link" data-entity-1="MainPage" data-entity-2="MainPageViewModel" data-source-line="38" data-uid="lnk12" id="link_MainPage_MainPageViewModel"><path codeLine="38" d="M293,189.6 C293,218.76 293,249.82 293,283.02" fill="none" id="MainPage-to-MainPageViewModel" style="stroke:#181818;stroke-width:1;"/><polygon fill="#181818" points="293,289.02,297,280.02,293,284.02,289,280.02,293,289.02" style="stroke:#181818;stroke-width:1;"/><text fill="#000000" font-family="sans-serif" font-size="13" lengthAdjust="spacing" textLength="86.5376" x="294" y="234.2169">uses (injects)</text></g><!--link MainPageViewModel to TestDbContext--><g class="link" data-entity-1="MainPageViewModel" data-entity-2="TestDbContext" data-source-line="39" data-uid="lnk13" id="link_MainPageViewModel_TestDbContext"><path codeLine="39" d="M316.18,459.81 C329.37,507.91 343.6216,559.8641 353.6116,596.2541" fill="none" id="MainPageViewModel-to-TestDbContext" style="stroke:#181818;stroke-width:1;stroke-dasharray:7.0,7.0;"/><polygon fill="#181818" points="355.2,602.04,356.6747,592.3022,353.8763,597.2184,348.9601,594.42,355.2,602.04" style="stroke:#181818;stroke-width:1;"/><text fill="#000000" font-family="sans-serif" font-size="13" lengthAdjust="spacing" textLength="86.5376" x="330" y="504.5669">uses (injects)</text></g><!--link MainPageViewModel to MainPageModel--><g class="link" data-entity-1="MainPageViewModel" data-entity-2="MainPageModel" data-source-line="41" data-uid="lnk14" id="link_MainPageViewModel_MainPageModel"><path codeLine="41" d="M123.28,459.79 C104.37,476.03 87.73,494.87 76,516.5 C37.31,587.82 32.11,630.82 76,699.06 C112.03,755.08 175.7522,783.5584 234.1222,799.5084" fill="none" id="MainPageViewModel-to-MainPageModel" style="stroke:#181818;stroke-width:1;stroke-dasharray:7.0,7.0;"/><polygon fill="#181818" points="239.91,801.09,232.2827,794.8591,235.0868,799.772,230.1739,802.5762,239.91,801.09" style="stroke:#181818;stroke-width:1;"/><text fill="#000000" font-family="sans-serif" font-size="13" lengthAdjust="spacing" textLength="115.0894" x="77" y="643.3469">processes data of</text></g><!--reverse link TestDbContext to MainPageModel--><g class="link" data-entity-1="TestDbContext" data-entity-2="MainPageModel" data-source-line="43" data-uid="lnk15" id="link_TestDbContext_MainPageModel"><path codeLine="43" d="M357.8075,687.3754 C353.4975,715.9054 349.24,744.12 344.63,774.59" fill="none" id="TestDbContext-backto-MainPageModel" style="stroke:#181818;stroke-width:1;"/><polygon fill="none" points="359.6,675.51,354.7486,680.8452,357.8075,687.3754,362.6589,682.0402,359.6,675.51" style="stroke:#181818;stroke-width:1;"/><text fill="#000000" font-family="sans-serif" font-size="13" lengthAdjust="spacing" textLength="108.9131" x="355" y="720.1269">contains (DbSet)</text><text fill="#000000" font-family="sans-serif" font-size="13" lengthAdjust="spacing" textLength="6.5" x="339.2004" y="763.9704">*</text></g><!--SRC=[hLF1Rjim3BtxAmZlq7Y3zG55OA2jBqLN96Y3NWVPvXArhkI9Ij9kwB-FSXB5Jb9Z0QQJJ3wAx_6PMhuYDR94k35BIxWszkMgQSIJmZN1dmZubBKaWdkfz5JE4SPZdyooRTQV57wiE7PlAgpXCa2VTh40_1Poey6295HyWObcGYYjqlDHmk2LKLMR_eW-eaWF26YVEgqYfBToslkXfgguCThXc-EkCoINxxwx84MtMZabQ_KRAmOMndJrpfIhaSFal03kDYa8xKeMDKwjQT2wzophu7Eaqgh6AQFFg3gIDVgKUz8fspE_edTTjkETINhfwFjkP9LB9pS0vHKgxNh0GHzyRI49HJ3ZX1ix9uvTO8xRbfoUtlL4ppRgmemUyDTIMQose7-ZvI-zFwGtB7urt0zuxRZdrymXBnxHZNjozamlOE8MQ3SWWhLPrXNC3N0CXH1xij45f6aA3rXBxpyjLCDmvHPA0xy0icbgLROv3unEhAm8QvgcsQSh8OxNu1BY9I71IEbdB1qbSNH6jH3Pq815VwWdUlsdPWSrGLfZJOdaUrRUR_CJZbeE4JRiIlmrFhThoUKSOw6jzKdy5m00]--></g></svg>